
<svg width="512" height="512" viewBox="0 0 512 512" fill="none" xmlns="http://www.w3.org/2000/svg">
  <rect width="512" height="512" rx="64" fill="url(#gradient)"/>
  <defs>
    <linearGradient id="gradient" x1="0" y1="0" x2="1" y2="1">
      <stop offset="0%" stop-color="#d97706"/>
      <stop offset="100%" stop-color="#ea580c"/>
    </linearGradient>
  </defs>
  
  <!-- Carta de tarot -->
  <rect x="156" y="96" width="200" height="320" rx="16" fill="white" stroke="#fbbf24" stroke-width="4"/>
  
  <!-- Diseño interno de la carta -->
  <circle cx="256" cy="176" r="24" fill="#d97706"/>
  <rect x="196" y="216" width="120" height="4" rx="2" fill="#d97706"/>
  <rect x="196" y="232" width="80" height="4" rx="2" fill="#d97706"/>
  <rect x="196" y="248" width="100" height="4" rx="2" fill="#d97706"/>
  
  <!-- Estrella decorativa -->
  <path d="M256 296 L264 312 L280 312 L268 324 L272 340 L256 332 L240 340 L244 324 L232 312 L248 312 Z" fill="#d97706"/>
  
  <!-- Líneas decorativas -->
  <rect x="196" y="364" width="120" height="4" rx="2" fill="#d97706"/>
  <rect x="196" y="380" width="80" height="4" rx="2" fill="#d97706"/>
</svg>
